<svg id="Capa_1" enable-background="new 0 0 512 512" height="512" viewBox="0 0 512 512" width="512" xmlns="http://www.w3.org/2000/svg"><g><path d="m461 145c0-27.123-19.737-49.724-45.602-54.197-4.516-34.267-33.917-60.803-69.398-60.803-5.638 0-11.243.742-16.981 2.257-19.008-20.581-45.257-32.257-73.019-32.257-52.051 0-94.941 39.975-99.583 90.836-25.774 4.548-45.417 27.106-45.417 54.164 0 1.678.08 3.345.229 5h-50.229c-5.523 0-10 4.477-10 10v252c0 2.731 1.158 5.301 2.929 7.071l90 90c1.826 1.826 4.373 2.929 7.071 2.929h150c5.523 0 10-4.477 10-10v-111c0-5.523-4.477-10-10-10s-10 4.477-10 10v101h-130v-80c0-5.523-4.477-10-10-10h-80v-232h46.015c9.289 18.196 28.158 30 48.985 30h125v101c0 5.523 4.477 10 10 10s10-4.477 10-10v-101h95c30.327 0 55-24.673 55-55zm-320 277v55.858l-55.858-55.858zm265-242h-240c-19.224 0-35-15.601-35-35 0-19.299 15.701-35 35-35 5.523 0 10-4.477 10-10 0-44.112 35.888-80 80-80 23.954 0 46.539 10.947 61.962 30.035 2.677 3.313 7.16 4.565 11.166 3.124 5.903-2.126 11.422-3.159 16.872-3.159 27.57 0 50 22.43 50 50 0 5.523 4.477 10 10 10 19.299 0 35 15.701 35 35s-15.701 35-35 35z" fill="#ccc"/><path d="m241 276h-120c-5.523 0-10 4.477-10 10s4.477 10 10 10h120c5.523 0 10-4.477 10-10s-4.477-10-10-10z" fill="#ccc"/><path d="m241 336h-120c-5.523 0-10 4.477-10 10s4.477 10 10 10h120c5.523 0 10-4.477 10-10s-4.477-10-10-10z" fill="#ccc"/><circle cx="301" cy="346" r="10" fill="#ccc"/></g></svg>